<svg xmlns="http://www.w3.org/2000/svg" width="29" height="29" viewBox="0 0 29 29" fill="none">
    <rect x="1" y="0.570068" width="28" height="28" rx="4" transform="rotate(0.265883 1 0.570068)" fill="#EDF2F4" />
    <path
        d="M21.9893 8.63479H7.73447C7.09795 8.63479 6.4875 8.88765 6.03742 9.33773C5.58733 9.78782 5.33447 10.3983 5.33447 11.0348V18.2348C5.33447 18.8713 5.58733 19.4818 6.03742 19.9318C6.4875 20.3819 7.09795 20.6348 7.73447 20.6348H22.1345C22.771 20.6348 23.3814 20.3819 23.8315 19.9318C24.2816 19.4818 24.5345 18.8713 24.5345 18.2348V11.18L19.2065 16.508C18.8668 16.8357 18.4121 17.0169 17.9401 17.0126C17.4682 17.0083 17.0168 16.8188 16.6832 16.4849C16.3496 16.151 16.1605 15.6994 16.1567 15.2275C16.1528 14.7555 16.3344 14.3009 16.6625 13.9616L21.9893 8.63479ZM7.73447 12.8348C7.73447 12.6757 7.79769 12.523 7.91021 12.4105C8.02273 12.298 8.17534 12.2348 8.33447 12.2348H10.7345C10.8936 12.2348 11.0462 12.298 11.1587 12.4105C11.2713 12.523 11.3345 12.6757 11.3345 12.8348C11.3345 12.9939 11.2713 13.1465 11.1587 13.2591C11.0462 13.3716 10.8936 13.4348 10.7345 13.4348H8.33447C8.17534 13.4348 8.02273 13.3716 7.91021 13.2591C7.79769 13.1465 7.73447 12.9939 7.73447 12.8348ZM7.73447 16.4348C7.73447 16.2757 7.79769 16.123 7.91021 16.0105C8.02273 15.898 8.17534 15.8348 8.33447 15.8348H13.7345C13.8936 15.8348 14.0462 15.898 14.1587 16.0105C14.2713 16.123 14.3345 16.2757 14.3345 16.4348C14.3345 16.5939 14.2713 16.7465 14.1587 16.8591C14.0462 16.9716 13.8936 17.0348 13.7345 17.0348H8.33447C8.17534 17.0348 8.02273 16.9716 7.91021 16.8591C7.79769 16.7465 7.73447 16.5939 7.73447 16.4348ZM24.3593 9.65959C24.4719 9.54693 24.5352 9.39412 24.5352 9.23479C24.5352 9.07546 24.4719 8.92266 24.3593 8.80999C24.2466 8.69733 24.0938 8.63403 23.9345 8.63403C23.7751 8.63403 23.6223 8.69733 23.5097 8.80999L17.5097 14.81C17.397 14.9227 17.3337 15.0755 17.3337 15.2348C17.3337 15.3941 17.397 15.5469 17.5097 15.6596C17.6223 15.7723 17.7751 15.8355 17.9345 15.8355C18.0938 15.8355 18.2466 15.7723 18.3593 15.6596L24.3593 9.65959Z"
        fill="#363D4E" />
</svg>