<svg xmlns="http://www.w3.org/2000/svg" width="17" height="17" viewBox="0 0 17 17" fill="none">
    <g clip-path="url(#clip0_184_2238)">
        <path
            d="M14.8332 3.08269H13.0555V4.41603C13.0555 4.54443 13.0302 4.67158 12.981 4.79021C12.9319 4.90884 12.8599 5.01662 12.7691 5.10742C12.6783 5.19821 12.5705 5.27024 12.4519 5.31938C12.3332 5.36851 12.2061 5.3938 12.0777 5.3938C11.9493 5.3938 11.8221 5.36851 11.7035 5.31938C11.5849 5.27024 11.4771 5.19821 11.3863 5.10742C11.2955 5.01662 11.2235 4.90884 11.1743 4.79021C11.1252 4.67158 11.0999 4.54443 11.0999 4.41603V3.08269H5.92212V4.41603C5.92212 4.67535 5.8191 4.92405 5.63574 5.10742C5.45237 5.29079 5.20366 5.3938 4.94434 5.3938C4.68502 5.3938 4.43632 5.29079 4.25295 5.10742C4.06958 4.92405 3.96656 4.67535 3.96656 4.41603V3.08269H2.18879C2.08302 3.08149 1.97808 3.10151 1.88019 3.14156C1.78229 3.18162 1.69342 3.2409 1.61884 3.3159C1.54425 3.3909 1.48546 3.4801 1.44595 3.57822C1.40643 3.67633 1.387 3.78138 1.38879 3.88714V13.8338C1.38702 13.9377 1.40574 14.0409 1.44387 14.1376C1.48201 14.2342 1.53881 14.3224 1.61104 14.3971C1.68326 14.4718 1.7695 14.5316 1.86482 14.573C1.96013 14.6143 2.06267 14.6365 2.16656 14.6382H14.8332C14.9371 14.6365 15.0397 14.6143 15.135 14.573C15.2303 14.5316 15.3165 14.4718 15.3888 14.3971C15.461 14.3224 15.5178 14.2342 15.5559 14.1376C15.5941 14.0409 15.6128 13.9377 15.611 13.8338V3.88714C15.6128 3.78324 15.5941 3.68002 15.5559 3.58336C15.5178 3.4867 15.461 3.3985 15.3888 3.3238C15.3165 3.2491 15.2303 3.18935 15.135 3.14799C15.0397 3.10662 14.9371 3.08443 14.8332 3.08269ZM4.94434 11.9716H4.05545V11.0827H4.94434V11.9716ZM4.94434 9.74936H4.05545V8.86047H4.94434V9.74936ZM4.94434 7.52714H4.05545V6.63825H4.94434V7.52714ZM7.61101 11.9716H6.72212V11.0827H7.61101V11.9716ZM7.61101 9.74936H6.72212V8.86047H7.61101V9.74936ZM7.61101 7.52714H6.72212V6.63825H7.61101V7.52714ZM10.2777 11.9716H9.38879V11.0827H10.2777V11.9716ZM10.2777 9.74936H9.38879V8.86047H10.2777V9.74936ZM10.2777 7.52714H9.38879V6.63825H10.2777V7.52714ZM12.9443 11.9716H12.0555V11.0827H12.9443V11.9716ZM12.9443 9.74936H12.0555V8.86047H12.9443V9.74936ZM12.9443 7.52714H12.0555V6.63825H12.9443V7.52714Z"
            fill="#EB6825" />
        <path
            d="M4.94444 4.86049C5.06232 4.86049 5.17536 4.81366 5.25871 4.73031C5.34206 4.64696 5.38889 4.53392 5.38889 4.41604V1.74938C5.38889 1.6315 5.34206 1.51846 5.25871 1.43511C5.17536 1.35176 5.06232 1.30493 4.94444 1.30493C4.82657 1.30493 4.71352 1.35176 4.63017 1.43511C4.54683 1.51846 4.5 1.6315 4.5 1.74938V4.41604C4.5 4.53392 4.54683 4.64696 4.63017 4.73031C4.71352 4.81366 4.82657 4.86049 4.94444 4.86049Z"
            fill="#EB6825" />
        <path
            d="M12.0558 4.86049C12.1736 4.86049 12.2867 4.81366 12.37 4.73031C12.4534 4.64696 12.5002 4.53392 12.5002 4.41604V1.74938C12.5002 1.6315 12.4534 1.51846 12.37 1.43511C12.2867 1.35176 12.1736 1.30493 12.0558 1.30493C11.9379 1.30493 11.8249 1.35176 11.7415 1.43511C11.6582 1.51846 11.6113 1.6315 11.6113 1.74938V4.41604C11.6113 4.53392 11.6582 4.64696 11.7415 4.73031C11.8249 4.81366 11.9379 4.86049 12.0558 4.86049Z"
            fill="#EB6825" />
    </g>
    <defs>
        <clipPath id="clip0_184_2238">
            <rect width="16" height="16" fill="white" transform="translate(0.5 0.416016)" />
        </clipPath>
    </defs>
</svg>