<svg xmlns="http://www.w3.org/2000/svg" width="342" height="111" viewBox="0 0 342 111" fill="white">
    <g filter="url(#filter0_d_184_2203)">
        <path fill-rule="evenodd" clip-rule="evenodd"
            d="M0 8.41602C0 3.99774 3.58172 0.416016 8 0.416016H334C338.418 0.416016 342 3.99774 342 8.41602V35.9975C341.669 35.9771 341.336 35.9667 341 35.9667C332.163 35.9667 325 43.1302 325 51.9667C325 60.8033 332.163 67.9667 341 67.9667C341.336 67.9667 341.669 67.9564 342 67.936V96.416C342 100.834 338.418 104.416 334 104.416H8.00001C3.58173 104.416 0 100.834 0 96.416V67.9667C8.83656 67.9667 16 60.8033 16 51.9667C16 43.1302 8.83656 35.9667 0 35.9667V8.41602Z"
            fill="#FBFBFB" />
    </g>
    <defs>
        <filter id="filter0_d_184_2203" x="-4" y="-1.58398" width="350" height="112" filterUnits="userSpaceOnUse"
            color-interpolation-filters="sRGB">
            <feFlood flood-opacity="0" result="BackgroundImageFix" />
            <feColorMatrix in="SourceAlpha" type="matrix" values="0 0 0 0 0 0 0 0 0 0 0 0 0 0 0 0 0 0 127 0"
                result="hardAlpha" />
            <feOffset dy="2" />
            <feGaussianBlur stdDeviation="2" />
            <feComposite in2="hardAlpha" operator="out" />
            <feColorMatrix type="matrix" values="0 0 0 0 0.580143 0 0 0 0 0.580143 0 0 0 0 0.580143 0 0 0 0.25 0" />
            <feBlend mode="normal" in2="BackgroundImageFix" result="effect1_dropShadow_184_2203" />
            <feBlend mode="normal" in="SourceGraphic" in2="effect1_dropShadow_184_2203" result="shape" />
        </filter>
    </defs>
</svg>