<svg width="29" height="29" viewBox="0 0 29 29" fill="none" xmlns="http://www.w3.org/2000/svg">
    <rect x="0.129883" y="0.681244" width="28" height="28" rx="4" transform="rotate(0.265883 0.129883 0.681244)"
        fill="#EDF2F4" />
    <path
        d="M6.73128 8.15529C6.24505 8.15529 5.77874 8.34844 5.43492 8.69226C5.0911 9.03608 4.89795 9.50239 4.89795 9.98862V13.6553C5.38418 13.6553 5.8505 13.8484 6.19431 14.1923C6.53813 14.5361 6.73128 15.0024 6.73128 15.4886C6.73128 15.9749 6.53813 16.4412 6.19431 16.785C5.8505 17.1288 5.38418 17.322 4.89795 17.322V20.9886C4.89795 21.4749 5.0911 21.9412 5.43492 22.285C5.77874 22.6288 6.24505 22.822 6.73128 22.822H21.3979C21.8842 22.822 22.3505 22.6288 22.6943 22.285C23.0381 21.9412 23.2313 21.4749 23.2313 20.9886V17.322C22.7451 17.322 22.2787 17.1288 21.9349 16.785C21.5911 16.4412 21.3979 15.9749 21.3979 15.4886C21.3979 15.0024 21.5911 14.5361 21.9349 14.1923C22.2787 13.8484 22.7451 13.6553 23.2313 13.6553V9.98862C23.2313 9.50239 23.0381 9.03608 22.6943 8.69226C22.3505 8.34844 21.8842 8.15529 21.3979 8.15529H6.73128ZM17.2729 10.9053L18.6479 12.2803L10.8563 20.072L9.48128 18.697L17.2729 10.9053ZM11.1404 10.942C12.0388 10.942 12.7629 11.6661 12.7629 12.5645C12.7629 12.9948 12.592 13.4075 12.2877 13.7117C11.9835 14.016 11.5708 14.187 11.1404 14.187C10.2421 14.187 9.51795 13.4628 9.51795 12.5645C9.51795 12.1341 9.68889 11.7215 9.99317 11.4172C10.2974 11.1129 10.7101 10.942 11.1404 10.942ZM16.9888 16.7903C17.8871 16.7903 18.6113 17.5145 18.6113 18.4128C18.6113 18.8431 18.4403 19.2558 18.1361 19.5601C17.8318 19.8643 17.4191 20.0353 16.9888 20.0353C16.0904 20.0353 15.3663 19.3111 15.3663 18.4128C15.3663 17.9825 15.5372 17.5698 15.8415 17.2655C16.1458 16.9612 16.5585 16.7903 16.9888 16.7903Z"
        fill="#363D4E" />
</svg>