<svg xmlns="http://www.w3.org/2000/svg" width="23" height="34" viewBox="0 0 23 34" fill="none">
    <mask id="path-1-inside-1_299_1038" fill="white">
        <path fill-rule="evenodd" clip-rule="evenodd"
            d="M20.6257 18.1335C22.0934 16.2654 22.9688 13.9098 22.9688 11.3499C22.9688 5.28066 18.0487 0.360596 11.9795 0.360596C5.9103 0.360596 0.990234 5.28066 0.990234 11.3499C0.990234 13.9083 1.86453 16.2625 3.33064 18.1301L11.9791 33.1097L20.6257 18.1335Z" />
    </mask>
    <path fill-rule="evenodd" clip-rule="evenodd"
        d="M20.6257 18.1335C22.0934 16.2654 22.9688 13.9098 22.9688 11.3499C22.9688 5.28066 18.0487 0.360596 11.9795 0.360596C5.9103 0.360596 0.990234 5.28066 0.990234 11.3499C0.990234 13.9083 1.86453 16.2625 3.33064 18.1301L11.9791 33.1097L20.6257 18.1335Z"
        fill="#FCB900" />
    <path
        d="M20.6257 18.1335L19.8394 17.5157L19.7953 17.5717L19.7597 17.6335L20.6257 18.1335ZM3.33064 18.1301L4.19666 17.6301L4.16112 17.5685L4.11721 17.5126L3.33064 18.1301ZM11.9791 33.1097L11.1131 33.6097L11.9791 35.1097L12.8452 33.6097L11.9791 33.1097ZM21.9688 11.3499C21.9688 13.6779 21.1736 15.8175 19.8394 17.5157L21.412 18.7513C23.0132 16.7133 23.9688 14.1418 23.9688 11.3499H21.9688ZM11.9795 1.3606C17.4964 1.3606 21.9688 5.83294 21.9688 11.3499H23.9688C23.9688 4.72837 18.601 -0.639404 11.9795 -0.639404V1.3606ZM1.99023 11.3499C1.99023 5.83294 6.46258 1.3606 11.9795 1.3606V-0.639404C5.35801 -0.639404 -0.00976562 4.72837 -0.00976562 11.3499H1.99023ZM4.11721 17.5126C2.78444 15.8149 1.99023 13.6765 1.99023 11.3499H-0.00976562C-0.00976562 14.1401 0.944614 16.7102 2.54406 18.7476L4.11721 17.5126ZM12.8452 32.6097L4.19666 17.6301L2.46461 18.6301L11.1131 33.6097L12.8452 32.6097ZM19.7597 17.6335L11.1131 32.6097L12.8452 33.6097L21.4917 18.6335L19.7597 17.6335Z"
        fill="white" fill-opacity="0.25" mask="url(#path-1-inside-1_299_1038)" />
</svg>