<svg width="29" height="29" viewBox="0 0 29 29" fill="none" xmlns="http://www.w3.org/2000/svg">
    <rect x="0.129883" y="0.681122" width="28" height="28" rx="4" transform="rotate(0.265883 0.129883 0.681122)"
        fill="#EDF2F4" />
    <path
        d="M12.2318 23.4959H5.8151C5.57199 23.4959 5.33883 23.3994 5.16692 23.2275C4.99501 23.0555 4.89844 22.8224 4.89844 22.5793V7.91261C4.89844 7.66949 4.99501 7.43633 5.16692 7.26443C5.33883 7.09252 5.57199 6.99594 5.8151 6.99594H12.2318C12.2318 7.48217 12.4249 7.94849 12.7687 8.2923C13.1126 8.63612 13.5789 8.82927 14.0651 8.82927C14.5513 8.82927 15.0176 8.63612 15.3615 8.2923C15.7053 7.94849 15.8984 7.48217 15.8984 6.99594H22.3151C22.5582 6.99594 22.7914 7.09252 22.9633 7.26443C23.1352 7.43633 23.2318 7.66949 23.2318 7.91261V22.5793C23.2318 22.8224 23.1352 23.0555 22.9633 23.2275C22.7914 23.3994 22.5582 23.4959 22.3151 23.4959H15.8984C15.8984 23.0097 15.7053 22.5434 15.3615 22.1996C15.0176 21.8558 14.5513 21.6626 14.0651 21.6626C13.5789 21.6626 13.1126 21.8558 12.7687 22.1996C12.4249 22.5434 12.2318 23.0097 12.2318 23.4959ZM8.5651 11.5793V18.9126H10.3984V11.5793H8.5651ZM17.7318 11.5793V18.9126H19.5651V11.5793H17.7318Z"
        fill="#363D4E" />
</svg>