<svg width="64" height="40" viewBox="0 0 64 40" fill="none" xmlns="http://www.w3.org/2000/svg">
    <rect width="64" height="40" rx="4" fill="#E8EBEE" />
    <path
        d="M47.6758 14.5424L36.9258 8.63959C36.7385 8.5368 36.5115 8.5368 36.3242 8.63959L32.2817 10.8593C32.1904 10.8847 32.1052 10.9313 32.033 10.9958L25.5742 14.5424C25.3743 14.6523 25.25 14.8622 25.25 15.0903V16.3681H18.0391C17.6938 16.3681 17.4141 16.6481 17.4141 16.9931C17.4141 17.3383 17.6938 17.6181 18.0391 17.6181H25.25V19.8681H21.6667C21.3215 19.8681 21.0417 20.1481 21.0417 20.4931C21.0417 20.8383 21.3215 21.1181 21.6667 21.1181H25.25V24.3681H20C19.6548 24.3681 19.375 24.6481 19.375 24.9931C19.375 25.3383 19.6548 25.6181 20 25.6181H25.25V26.8962C25.25 27.1242 25.3743 27.3342 25.5742 27.444L36.3242 33.3469C36.418 33.3984 36.5215 33.424 36.625 33.424C36.7285 33.424 36.832 33.3984 36.9258 33.3469L47.6758 27.444C47.8757 27.3342 48 27.1242 48 26.8962V24.0974C48 23.7524 47.7202 23.4724 47.375 23.4724C47.0298 23.4724 46.75 23.7524 46.75 24.0974V26.5263L37.25 31.7429V21.363L40.2712 19.704V22.3369C40.2712 22.558 40.3879 22.7626 40.5781 22.8749C40.676 22.9328 40.7861 22.9619 40.8962 22.9619C40.9998 22.9619 41.1035 22.9362 41.1975 22.8845L43.5012 21.6166C43.7007 21.5068 43.8247 21.2971 43.8247 21.069V17.7529L46.75 16.1467V19.0974C46.75 19.4426 47.0298 19.7224 47.375 19.7224C47.7202 19.7224 48 19.4426 48 19.0974V15.0903C48 14.8622 47.8757 14.6523 47.6758 14.5424ZM36.625 20.2802L27.1736 15.0903L30.144 13.4592L39.5957 18.6491L36.625 20.2802ZM43.2173 16.6603L33.7659 11.4704L36.625 9.90057L46.0764 15.0903L43.2173 16.6603Z"
        fill="black" />
</svg>