<svg width="64" height="40" viewBox="0 0 64 40" fill="none" xmlns="http://www.w3.org/2000/svg">
    <rect width="64" height="40" rx="4" fill="#E8EBEE" />
    <path
        d="M32.167 13.6347L30.9564 5.568C30.9084 5.24 30.627 5 30.2977 5C30.291 5 30.283 5 30.275 5C29.9363 5.01069 29.6603 5.27331 29.6337 5.61069L29.0497 12.6147C29.0137 13.0467 28.247 13.0467 28.211 12.6147L27.6284 5.61069C27.599 5.26531 27.311 5 26.9644 5C26.6177 5 26.3284 5.26531 26.3004 5.61069L25.7164 12.6147C25.6804 13.0467 24.9137 13.0467 24.8777 12.6147L24.295 5.61069C24.267 5.27469 23.991 5.012 23.6523 5C23.6443 5 23.6376 5 23.631 5C23.3017 5 23.0203 5.24 22.9723 5.568L21.763 13.6347C21.407 15.9987 22.6897 18.26 24.8523 19.2027L23.823 33.6294C23.7617 34.4974 24.0657 35.3601 24.659 35.9974C25.251 36.6347 26.0897 37 26.9617 37H26.967C27.8377 37 28.6777 36.6347 29.271 35.9973C29.8643 35.36 30.1683 34.4973 30.107 33.6293L29.0777 19.2027C31.2404 18.26 32.523 15.9987 32.167 13.6347Z"
        fill="#040C22" />
    <path
        d="M42.0154 5.12261C41.8394 4.9973 41.6127 4.96792 41.4087 5.03861C41.3514 5.05861 35.6314 7.15992 35.6314 13.6666C35.6314 18.3506 37.1554 20.7159 38.0127 21.6759L37.1594 22.5292C37.0501 22.6385 36.9821 22.7812 36.9674 22.9345L35.9127 33.4825C35.822 34.3799 36.1167 35.2785 36.722 35.9479C37.3274 36.6172 38.1954 36.9999 39.0968 36.9999C40.8608 36.9999 42.2968 35.5639 42.2968 33.7999V5.66661C42.2981 5.44924 42.1928 5.24792 42.0154 5.12261Z"
        fill="#040C22" />
</svg>