<svg width="64" height="40" viewBox="0 0 64 40" fill="none" xmlns="http://www.w3.org/2000/svg">
    <rect width="64" height="40" rx="4" fill="#E8EBEE" />
    <path
        d="M45 20C45 23.4478 43.6304 26.7544 41.1924 29.1924C38.7544 31.6304 35.4478 33 32 33C28.5522 33 25.2456 31.6304 22.8076 29.1924C20.3696 26.7544 19 23.4478 19 20C19 16.5522 20.3696 13.2456 22.8076 10.8076C25.2456 8.36964 28.5522 7 32 7C35.4478 7 38.7544 8.36964 41.1924 10.8076C43.6304 13.2456 45 16.5522 45 20ZM32 12.6875C32 12.472 31.9144 12.2653 31.762 12.113C31.6097 11.9606 31.403 11.875 31.1875 11.875C30.972 11.875 30.7653 11.9606 30.613 12.113C30.4606 12.2653 30.375 12.472 30.375 12.6875V21.625C30.375 21.7682 30.4129 21.9089 30.4849 22.0327C30.5568 22.1566 30.6601 22.2592 30.7845 22.3302L36.472 25.5802C36.6586 25.6811 36.8773 25.705 37.0814 25.6467C37.2854 25.5885 37.4585 25.4528 37.5638 25.2686C37.669 25.0844 37.698 24.8663 37.6447 24.661C37.5913 24.4556 37.4597 24.2793 37.278 24.1698L32 21.1538V12.6875Z"
        fill="#363D4E" />
</svg>