<svg width="64" height="40" viewBox="0 0 64 40" fill="none" xmlns="http://www.w3.org/2000/svg">
    <rect width="64" height="40" rx="4" fill="#E8EBEE" />
    <path d="M33.7929 10.5L35.7929 8.5H21.5C21.2961 8.5 21 8.88956 21 9.5C21 10.1104 21.2961 10.5 21.5 10.5H33.7929Z"
        fill="black" />
    <path
        d="M36.1319 14.3641C35.7268 14.6792 35.2245 14.8428 34.7116 14.8269C34.1987 14.8109 33.7075 14.6163 33.3228 14.2766C32.9382 13.937 32.6843 13.4736 32.6049 12.9667C32.5256 12.4597 32.6258 11.9409 32.8883 11.5H22.3736L20.0424 19.3919C20.0143 19.5079 20 19.6268 20 19.7462V33.5H36.5V19.7462C36.5 19.5418 36.5251 19.3382 36.5746 19.1399C36.5763 19.1331 36.5782 19.1263 36.5802 19.1194L38.5375 12.4931L36.1319 14.3641ZM28 21.5H27.9991C27.9994 21.5776 27.9816 21.6541 27.9472 21.7236L27.0085 23.6011L27.4222 29.3931C27.4369 29.5986 27.4091 29.8049 27.3405 29.9991C27.272 30.1934 27.1642 30.3714 27.0238 30.5222C26.8834 30.6729 26.7135 30.7932 26.5246 30.8754C26.3358 30.9576 26.132 31 25.926 31H25.074C24.868 31 24.6642 30.9576 24.4754 30.8754C24.2865 30.7932 24.1166 30.6729 23.9762 30.5222C23.8358 30.3714 23.728 30.1934 23.6595 29.9991C23.5909 29.8049 23.5631 29.5986 23.5778 29.3931L23.9915 23.6011L23.0528 21.7236C23.0184 21.6541 23.0006 21.5776 23.0009 21.5H23V19.5C23 19.3674 23.0527 19.2402 23.1464 19.1464C23.2402 19.0527 23.3674 19 23.5 19C23.6326 19 23.7598 19.0527 23.8536 19.1464C23.9473 19.2402 24 19.3674 24 19.5V21H25V19.5C25 19.3674 25.0527 19.2402 25.1464 19.1464C25.2402 19.0527 25.3674 19 25.5 19C25.6326 19 25.7598 19.0527 25.8536 19.1464C25.9473 19.2402 26 19.3674 26 19.5V21H27V19.5C27 19.3674 27.0527 19.2402 27.1464 19.1464C27.2402 19.0527 27.3674 19 27.5 19C27.6326 19 27.7598 19.0527 27.8536 19.1464C27.9473 19.2402 28 19.3674 28 19.5V21.5ZM32.5072 30.5063C32.3664 30.6616 32.1948 30.7858 32.0032 30.8708C31.8116 30.9558 31.6043 30.9998 31.3947 31H30.605C30.3954 31 30.1882 30.9561 29.9966 30.8711C29.8051 30.7861 29.6335 30.6619 29.4929 30.5065C29.3522 30.3511 29.2457 30.168 29.1802 29.9689C29.1147 29.7699 29.0916 29.5593 29.1125 29.3507L29.5 25.475V25.3088L28.7764 24.9469C28.6876 24.9026 28.6141 24.8328 28.5651 24.7465C28.5161 24.6602 28.494 24.5613 28.5014 24.4623C28.5181 24.2396 28.9462 19 32 19C32.1326 19 32.2598 19.0527 32.3536 19.1464C32.4473 19.2402 32.5 19.3674 32.5 19.5V25.475L32.8875 29.3505C32.9082 29.559 32.8851 29.7696 32.8196 29.9686C32.7541 30.1676 32.6477 30.3508 32.5072 30.5063Z"
        fill="black" />
    <path d="M45 4.5H48V10H45V4.5Z" fill="black" />
    <path
        d="M32.7466 5.70775L29.4609 7.5H37C37.0989 7.5 37.1956 7.52932 37.2778 7.58426C37.36 7.6392 37.4241 7.71729 37.462 7.80866C37.4998 7.90002 37.5097 8.00056 37.4904 8.09755C37.4711 8.19454 37.4235 8.28364 37.3536 8.35356L33.9306 11.7766C33.7142 11.9928 33.5884 12.2834 33.5788 12.5891C33.5693 12.8948 33.6766 13.1926 33.8791 13.4219C34.0815 13.6512 34.3637 13.7947 34.6683 13.8231C34.9728 13.8515 35.2767 13.7627 35.5181 13.5748L38.6385 11.1478C38.7618 11.0523 38.9132 11.0003 39.0692 11H40.2983C40.7495 10.9995 41.182 10.82 41.501 10.501C41.82 10.182 41.9995 9.74947 42 9.29831C42.0002 9.08666 42.0844 8.88375 42.2341 8.73409C42.3838 8.58444 42.5867 8.50025 42.7983 8.5H44V5.5H33.5614C33.2767 5.50019 32.9966 5.57161 32.7466 5.70775Z"
        fill="black" />
    <path
        d="M26.0344 24H24.9657L24.575 29.4644C24.5701 29.5329 24.5794 29.6017 24.6022 29.6664C24.6251 29.7312 24.661 29.7905 24.7078 29.8408C24.7546 29.891 24.8113 29.9311 24.8742 29.9585C24.9372 29.9859 25.0051 30 25.0737 30H25.9257C25.9944 30 26.0623 29.9859 26.1253 29.9585C26.1882 29.9311 26.2449 29.891 26.2917 29.8408C26.3384 29.7905 26.3744 29.7312 26.3972 29.6664C26.4201 29.6017 26.4294 29.5329 26.4245 29.4644L26.0344 24Z"
        fill="black" />
    <path
        d="M30.5 24.9999H31.5V20.0911C30.8837 20.3259 30.3789 21.0137 29.9946 22.1444C29.7751 22.8159 29.621 23.507 29.5343 24.2081L30.2236 24.5528C30.3067 24.5943 30.3765 24.6581 30.4253 24.7371C30.4741 24.8161 30.5 24.9071 30.5 24.9999Z"
        fill="black" />
    <path d="M24.809 23H26.191L26.691 22H24.309L24.809 23Z" fill="black" />
    <path d="M38.2072 33.5002H40.7929L39.5 32.2073L38.2072 33.5002Z" fill="black" />
    <path
        d="M31.5475 26H30.4525L30.1074 29.45C30.1004 29.5195 30.1081 29.5898 30.1299 29.6561C30.1518 29.7225 30.1872 29.7836 30.2341 29.8354C30.281 29.8873 30.3382 29.9287 30.4021 29.957C30.466 29.9854 30.5351 30 30.605 30H31.395C31.4649 30 31.534 29.9854 31.5979 29.957C31.6617 29.9287 31.719 29.8873 31.7658 29.8354C31.8127 29.7836 31.8482 29.7225 31.87 29.6561C31.8919 29.5898 31.8995 29.5195 31.8925 29.45L31.5475 26Z"
        fill="black" />
    <path
        d="M37.5424 19.3918C37.5143 19.5078 37.5 19.6267 37.5 19.7461V32.7927L39 31.2927V20.4999C39 20.3673 39.0527 20.2401 39.1464 20.1463C39.2402 20.0526 39.3674 19.9999 39.5 19.9999C39.6326 19.9999 39.7598 20.0526 39.8536 20.1463C39.9473 20.2401 40 20.3673 40 20.4999V31.2927L41.5 32.7927V19.7879C41.5 19.6447 41.4795 19.5022 41.4391 19.3648L39.4989 12.7683L37.5424 19.3918Z"
        fill="black" />
</svg>